<svg xmlns="http://www.w3.org/2000/svg" viewBox="0 0 1155.441 1066.072"><g id="Camada_2" data-name="Camada 2"><g id="Camada_1-2" data-name="Camada 1"><path d="M831.789,174.484H70a65,65,0,0,0-65,65v756.59a65,65,0,0,0,65,65h761.79a65,65,0,0,0,65-65V239.483A65,65,0,0,0,831.789,174.484Zm-35.1,722.074a65,65,0,0,1-65,65H170.1a65,65,0,0,1-65-65V339a65,65,0,0,1,65-65H731.69a65,65,0,0,1,65,65Z" fill="#d8d810" stroke="#1d1d1b" stroke-miterlimit="10" stroke-width="10"/><path d="M383.121,653.744l650-639.6L1141.3,124.076,485.96,768.93,334.644,800.181Z" fill="#d8d810" stroke="#1d1d1b" stroke-miterlimit="10" stroke-width="20"/></g></g></svg>